<svg width="58" height="58" viewBox="0 0 58 58" fill="none" xmlns="http://www.w3.org/2000/svg">
    <rect width="58" height="58" rx="12" fill="#68C4FF"/>
    <rect x="0.5" y="0.5" width="57" height="57" rx="11.5" stroke="black" stroke-opacity="0.15"/>
    <svg xmlns="http://www.w3.org/2000/svg" width="24" height="23" viewBox="0 0 24 23" fill="none" x="17" y="17">
        <path d="M12 10.5C14.4863 10.5 16.5 8.48625 16.5 6C16.5 3.51375 14.4863 1.5 12 1.5C9.51375 1.5 7.5 3.51375 7.5 6C7.5 8.48625 9.51375 10.5 12 10.5Z"
              stroke="white" stroke-width="1.2" stroke-linecap="round" stroke-linejoin="round"/>
        <path d="M12 13C8.49562 13 1.5 14.8983 1.5 18.6667V20.5C1.5 21.0523 1.94772 21.5 2.5 21.5H21.5C22.0523 21.5 22.5 21.0523 22.5 20.5V18.6667C22.5 14.8983 15.5044 13 12 13Z"
              stroke="white" stroke-width="1.2" stroke-linecap="round" stroke-linejoin="round"/>
    </svg>
</svg>
